<svg xmlns="http://www.w3.org/2000/svg" viewBox="0 0 32 32">
  <defs>
    <linearGradient id="bg" x1="0" y1="0" x2="1" y2="1">
      <stop offset="0%" stop-color="#007aff"/>
      <stop offset="100%" stop-color="#5ac8fa"/>
    </linearGradient>
  </defs>
  <rect width="32" height="32" rx="8" fill="url(#bg)"/>
  <path d="M14.5 21.75l-.6-2.1a3.4 3.4 0 00-2.3-2.3l-2.1-.6 2.1-.6a3.4 3.4 0 002.3-2.3l.6-2.1.6 2.1a3.4 3.4 0 002.3 2.3l2.1.6-2.1.6a3.4 3.4 0 00-2.3 2.3l-.6 2.1z" fill="white"/>
  <path d="M22 11.5l-.2-.8a2.5 2.5 0 00-1.8-1.8l-.8-.2.8-.2a2.5 2.5 0 001.8-1.8l.2-.8.2.8a2.5 2.5 0 001.8 1.8l.8.2-.8.2a2.5 2.5 0 00-1.8 1.8l-.2.8z" fill="white" opacity=".8"/>
</svg>
